<?xml version="1.0" encoding="UTF-8" standalone="no"?>
<!-- Created with Inkscape (http://www.inkscape.org/) -->

<svg
   xmlns:osb="http://www.openswatchbook.org/uri/2009/osb"
   xmlns:dc="http://purl.org/dc/elements/1.1/"
   xmlns:cc="http://creativecommons.org/ns#"
   xmlns:rdf="http://www.w3.org/1999/02/22-rdf-syntax-ns#"
   xmlns:svg="http://www.w3.org/2000/svg"
   xmlns="http://www.w3.org/2000/svg"
   xmlns:sodipodi="http://sodipodi.sourceforge.net/DTD/sodipodi-0.dtd"
   xmlns:inkscape="http://www.inkscape.org/namespaces/inkscape"
   sodipodi:docname="hicolor_apps_scalable_xmz-symbolic.svg"
   height="16"
   id="svg7384"
   version="1.1"
   inkscape:version="0.91 r13725"
   width="16">
  <metadata
     id="metadata90">
    <rdf:RDF>
      <cc:Work
         rdf:about="">
        <dc:format>image/svg+xml</dc:format>
        <dc:type
           rdf:resource="http://purl.org/dc/dcmitype/StillImage" />
        <dc:title>Gnome Symbolic Icon Theme</dc:title>
      </cc:Work>
    </rdf:RDF>
  </metadata>
  <sodipodi:namedview
     inkscape:bbox-paths="true"
     bordercolor="#666666"
     borderopacity="1"
     inkscape:current-layer="layer9"
     inkscape:cx="4.3681622"
     inkscape:cy="4.1208194"
     gridtolerance="10"
     inkscape:guide-bbox="true"
     guidetolerance="10"
     id="namedview88"
     inkscape:object-nodes="false"
     inkscape:object-paths="false"
     objecttolerance="10"
     pagecolor="#555753"
     inkscape:pageopacity="1"
     inkscape:pageshadow="2"
     showborder="false"
     showgrid="false"
     showguides="true"
     inkscape:snap-bbox="true"
     inkscape:snap-bbox-midpoints="false"
     inkscape:snap-global="true"
     inkscape:snap-grids="true"
     inkscape:snap-nodes="true"
     inkscape:snap-others="false"
     inkscape:snap-to-guides="true"
     inkscape:window-height="1163"
     inkscape:window-maximized="1"
     inkscape:window-width="1600"
     inkscape:window-x="1920"
     inkscape:window-y="0"
     inkscape:zoom="29.9375">
    <inkscape:grid
       empspacing="2"
       enabled="true"
       id="grid4866"
       originx="-281.99979"
       originy="-341.99988"
       snapvisiblegridlinesonly="true"
       spacingx="1px"
       spacingy="1px"
       type="xygrid"
       visible="true" />
  </sodipodi:namedview>
  <title
     id="title9167">Gnome Symbolic Icon Theme</title>
  <defs
     id="defs7386">
    <linearGradient
       id="linearGradient7212"
       osb:paint="solid">
      <stop
         id="stop7214"
         offset="0"
         style="stop-color:#000000;stop-opacity:1;" />
    </linearGradient>
  </defs>
  <g
     inkscape:groupmode="layer"
     id="layer9"
     inkscape:label="apps"
     style="display:inline"
     transform="translate(-522.99999,124.99988)">
    <path
       inkscape:connector-curvature="0"
       id="path14"
       style="fill:none;stroke:#bebebe;stroke-width:0.95478565;stroke-linecap:butt;stroke-linejoin:miter;stroke-miterlimit:3.86369991;stroke-dasharray:none;stroke-opacity:1"
       d="m 523.54688,-116.99996 c 0,-3.25061 2.63507,-5.88567 5.88568,-5.88567 3.25059,0 5.88565,2.63506 5.88565,5.88567 0,3.25075 -2.63506,5.88582 -5.88565,5.88582 -3.25061,0 -5.88568,-2.63507 -5.88568,-5.88582 z" />
    <path
       inkscape:connector-curvature="0"
       id="path16"
       style="fill:#ffffff;fill-opacity:1;fill-rule:nonzero;stroke:#bebebe;stroke-width:0.07344505;stroke-opacity:1"
       d="m 538.82037,-116.59814 c -0.14138,0.0353 -2.19168,-2.36846 -5.37317,0.14138 0,0 -1.48469,1.62614 -3.92378,1.27258 0,0 1.90889,1.73213 5.09031,-0.91909 0.0272,-0.0226 0.63625,-1.02507 4.20664,-0.49487" />
    <path
       inkscape:connector-curvature="0"
       id="path18"
       style="fill:none;stroke:#bebebe;stroke-width:0.22033516;stroke-linecap:butt;stroke-linejoin:round;stroke-miterlimit:4;stroke-dasharray:none;stroke-opacity:1"
       d="m 538.82037,-116.59814 c -0.14138,0.0353 -2.19168,-2.36846 -5.37317,0.14138 0,0 -1.48469,1.62614 -3.92378,1.27258 0,0 1.90889,1.73213 5.09031,-0.91909 0.0272,-0.0226 0.63625,-1.02507 4.20664,-0.49487 z" />
    <path
       inkscape:connector-curvature="0"
       id="path20"
       style="fill:#ffffff;fill-opacity:1;fill-rule:nonzero;stroke:#bebebe;stroke-width:0.07344505;stroke-opacity:1"
       d="m 537.68917,-119.02359 c -0.1109,0.0277 -1.71773,-1.85625 -4.21119,0.11083 0,0 -1.16352,1.27441 -3.0752,0.99731 0,0 1.49605,1.35748 3.98944,-0.72028 0.0213,-0.0177 0.49869,-0.80342 3.29695,-0.38786" />
    <path
       inkscape:connector-curvature="0"
       id="path22"
       style="fill:none;stroke:#bebebe;stroke-width:0.22033516;stroke-linecap:butt;stroke-linejoin:round;stroke-miterlimit:4;stroke-dasharray:none;stroke-opacity:1"
       d="m 537.68917,-119.02359 c -0.1109,0.0277 -1.71773,-1.85625 -4.21119,0.11083 0,0 -1.16352,1.27441 -3.0752,0.99731 0,0 1.49605,1.35748 3.98944,-0.72028 0.0213,-0.0177 0.49869,-0.80342 3.29695,-0.38786 z" />
    <path
       inkscape:connector-curvature="0"
       id="path24"
       style="fill:#ffffff;fill-opacity:1;fill-rule:nonzero;stroke:#bebebe;stroke-width:0.07344505;stroke-opacity:1"
       d="m 536.80291,-121.31471 c -0.0859,0.0195 -1.29293,-1.45921 -3.2473,0.0152 0,0 -0.91807,0.96279 -2.3866,0.71741 0,0 1.13025,1.0712 3.08653,-0.48855 0.0167,-0.0134 0.3977,-0.61092 2.54737,-0.24406" />
    <path
       inkscape:connector-curvature="0"
       id="path26"
       style="fill:none;stroke:#bebebe;stroke-width:0.22033516;stroke-linecap:butt;stroke-linejoin:round;stroke-miterlimit:4;stroke-dasharray:none;stroke-opacity:1"
       d="m 536.80291,-121.31471 c -0.0859,0.0195 -1.29293,-1.45921 -3.2473,0.0152 0,0 -0.91807,0.96279 -2.3866,0.71741 0,0 1.13025,1.0712 3.08653,-0.48855 0.0167,-0.0134 0.3977,-0.61092 2.54737,-0.24406 z" />
    <path
       inkscape:connector-curvature="0"
       id="path40"
       style="fill:#231f20;fill-opacity:1;fill-rule:nonzero;stroke:#bebebe;stroke-width:0.07344505;stroke-opacity:1"
       d="m 538.53511,-117.32106 c -0.14138,0.0353 -2.19168,-2.36839 -5.37317,0.1413 0,0 -1.48462,1.6263 -3.92381,1.27273 0,0 1.90892,1.73213 5.09041,-0.91916 0.0271,-0.0226 0.63618,-1.02507 4.20657,-0.49487" />
    <path
       inkscape:connector-curvature="0"
       id="path42"
       style="fill:#666666;stroke:#bebebe;stroke-width:0.22033516;stroke-linecap:butt;stroke-linejoin:round;stroke-miterlimit:3.86369991;stroke-dasharray:none;stroke-opacity:1"
       d="m 538.53511,-117.32106 c -0.14138,0.0353 -2.19168,-2.36839 -5.37317,0.1413 0,0 -1.48462,1.6263 -3.92381,1.27273 0,0 1.90892,1.73213 5.09041,-0.91916 0.0271,-0.0226 0.63618,-1.02507 4.20657,-0.49487 z" />
    <path
       inkscape:connector-curvature="0"
       id="path44"
       style="fill:#231f20;fill-opacity:1;fill-rule:nonzero;stroke:#bebebe;stroke-width:0.07344505;stroke-opacity:1"
       d="m 537.40383,-119.67307 c -0.11068,0.0278 -1.71766,-1.8561 -4.21104,0.11083 0,0 -1.16366,1.27442 -3.07536,0.99738 0,0 1.49622,1.35742 3.9896,-0.72034 0.0212,-0.0177 0.49869,-0.80342 3.2968,-0.38787" />
    <path
       inkscape:connector-curvature="0"
       id="path46"
       style="fill:#808080;stroke:#bebebe;stroke-width:0.22033516;stroke-linecap:butt;stroke-linejoin:round;stroke-miterlimit:4;stroke-dasharray:none;stroke-opacity:1"
       d="m 537.40383,-119.67307 c -0.11068,0.0278 -1.71766,-1.8561 -4.21104,0.11083 0,0 -1.16366,1.27442 -3.07536,0.99738 0,0 1.49622,1.35742 3.9896,-0.72034 0.0212,-0.0177 0.49869,-0.80342 3.2968,-0.38787 z" />
    <path
       inkscape:connector-curvature="0"
       id="path48"
       style="fill:#231f20;fill-opacity:1;fill-rule:nonzero;stroke:#bebebe;stroke-width:0.07344505;stroke-opacity:1"
       d="m 536.51199,-122.025 c -0.0855,0.0214 -1.32414,-1.43093 -3.2462,0.0854 0,0 -0.89705,0.98247 -2.37058,0.76889 0,0 1.15323,1.04645 3.07529,-0.55531 0.0164,-0.0137 0.38448,-0.61929 2.54149,-0.299" />
    <path
       inkscape:connector-curvature="0"
       id="path50"
       style="fill:#666666;stroke:#bebebe;stroke-width:0.22033516;stroke-linecap:butt;stroke-linejoin:round;stroke-miterlimit:1;stroke-dasharray:none;stroke-opacity:1"
       d="m 536.51199,-122.025 c -0.0855,0.0214 -1.32414,-1.43093 -3.2462,0.0854 0,0 -0.89705,0.98247 -2.37058,0.76889 0,0 1.15323,1.04645 3.07529,-0.55531 0.0164,-0.0137 0.38448,-0.61929 2.54149,-0.299 z" />
  </g>
</svg>
